<svg width="45" height="45" viewBox="0 0 45 45" fill="none" xmlns="http://www.w3.org/2000/svg">
<path d="M36.5625 0H8.4375C3.77654 0 0 3.77654 0 8.4375V36.5625C0 41.2235 3.77654 45 8.4375 45H36.5625C41.2235 45 45 41.2235 45 36.5625V8.4375C45 3.77654 41.2235 0 36.5625 0ZM32.5038 30.105L30.1015 32.5056C29.6619 32.9469 28.9419 32.9469 28.5023 32.5056L22.5 26.5033L16.4994 32.5038C16.0581 32.9452 15.3398 32.9452 14.8985 32.5004L12.4962 30.105C12.0583 29.6619 12.0583 28.9471 12.4962 28.5023L18.4985 22.5017L12.4979 16.5012C12.0583 16.0581 12.0583 15.3381 12.4979 14.9002L14.9002 12.4979C15.3415 12.0531 16.0615 12.0531 16.5012 12.4979L22.5 18.5002L28.5023 12.4979C28.9437 12.0531 29.6637 12.0531 30.1015 12.4979L32.5038 14.8967C32.9435 15.3381 32.9435 16.0581 32.5056 16.5012L26.5033 22.5017L32.5056 28.5023C32.9417 28.9471 32.9417 29.6619 32.5038 30.105Z" fill="#C1C4D0"/>
</svg>
