<svg width="15" height="15" viewBox="0 0 15 15" fill="none" xmlns="http://www.w3.org/2000/svg">
<path d="M14.9359 0.415529C14.8152 0.138621 14.6062 0.000149256 14.308 0H0.691694C0.393876 0 0.184587 0.138621 0.064014 0.415529C-0.0564845 0.706615 -0.00689161 0.95535 0.213016 1.16125L5.45761 6.4133V11.5908C5.45761 11.7757 5.52501 11.9353 5.65971 12.0704L8.38285 14.7975C8.51061 14.9323 8.67012 15 8.86167 15C8.9467 15 9.0353 14.9821 9.12752 14.9466C9.40421 14.8258 9.5426 14.6164 9.5426 14.3181V6.41334L14.787 1.16129C15.007 0.955387 15.0565 0.706727 14.9359 0.415529Z" fill="#C1C4D0"/>
</svg>
