<svg width="25" height="25" viewBox="0 0 25 25" fill="none" xmlns="http://www.w3.org/2000/svg">
<path d="M2.91679 22.9166C2.49284 22.9166 2.14388 22.577 2.13555 22.151L2.08347 19.5469C2.0793 19.3364 2.15951 19.1344 2.30742 18.9844C2.45325 18.8344 2.65533 18.75 2.8647 18.75H5.46883C5.90007 18.75 6.25006 19.1 6.25006 19.5312C6.25006 19.9625 5.90007 20.3125 5.46883 20.3125H3.66157L3.69802 22.1197C3.70636 22.551 3.36365 22.9083 2.93137 22.9166C2.9272 22.9166 2.92199 22.9166 2.91679 22.9166Z" fill="#C1C4D0"/>
<path d="M22.1347 6.25033H19.5306C19.0994 6.25033 18.7494 5.90034 18.7494 5.4691C18.7494 5.03786 19.0994 4.68786 19.5306 4.68786H21.3535V2.86498C21.3535 2.43373 21.7035 2.08374 22.1347 2.08374C22.566 2.08374 22.916 2.43373 22.916 2.86498V5.4691C22.916 5.90034 22.566 6.25033 22.1347 6.25033Z" fill="#C1C4D0"/>
<path d="M1.28123 16.6664C0.945817 16.6664 0.635406 16.4487 0.533324 16.1101C0.180205 14.9362 0 13.7216 0 12.4998C0 5.60719 5.60719 0 12.4998 0C16.3424 0 19.9038 1.72185 22.2694 4.72492C22.5371 5.06345 22.4777 5.55511 22.1392 5.82177C21.7986 6.08739 21.308 6.0301 21.0423 5.69157C18.9757 3.06766 15.8622 1.56247 12.4998 1.56247C6.46864 1.56247 1.56247 6.46864 1.56247 12.4998C1.56247 13.5685 1.71976 14.631 2.02913 15.6601C2.15413 16.0726 1.9208 16.5091 1.50727 16.6341C1.43227 16.656 1.35623 16.6664 1.28123 16.6664Z" fill="#C1C4D0"/>
<path d="M12.5003 24.9999C8.65762 24.9999 5.09622 23.278 2.73064 20.275C2.46293 19.9364 2.52231 19.4448 2.86084 19.1781C3.20042 18.9104 3.69312 18.9698 3.9577 19.3083C6.02433 21.9322 9.13782 23.4374 12.5003 23.4374C18.5314 23.4374 23.4376 18.5312 23.4376 12.5001C23.4376 11.4314 23.2803 10.3689 22.9709 9.33973C22.8459 8.92724 23.0792 8.49079 23.4928 8.36579C23.9074 8.23975 24.3417 8.47517 24.4667 8.8887C24.8198 10.0637 25 11.2782 25 12.5001C25 19.3927 19.3928 24.9999 12.5003 24.9999Z" fill="#C1C4D0"/>
<path d="M12.4999 14.5835C8.63955 14.5835 5.72919 13.0159 5.72919 10.9378C5.72919 8.85968 8.63955 7.29199 12.4999 7.29199C16.3603 7.29199 19.2706 8.85968 19.2706 10.9378C19.2706 13.0159 16.3603 14.5835 12.4999 14.5835ZM12.4999 8.85447C9.32079 8.85447 7.29166 10.0888 7.29166 10.9378C7.29166 11.7867 9.32079 13.0211 12.4999 13.0211C15.679 13.0211 17.7081 11.7867 17.7081 10.9378C17.7081 10.0888 15.679 8.85447 12.4999 8.85447Z" fill="#C1C4D0"/>
<path d="M12.4999 17.7084C8.63955 17.7084 5.72919 16.1408 5.72919 14.0627V10.9377C5.72919 10.5065 6.07918 10.1565 6.51042 10.1565C6.94167 10.1565 7.29166 10.5065 7.29166 10.9377V14.0627C7.29166 14.9116 9.32079 16.146 12.4999 16.146C15.679 16.146 17.7081 14.9116 17.7081 14.0627V10.9377C17.7081 10.5065 18.0581 10.1565 18.4894 10.1565C18.9206 10.1565 19.2706 10.5065 19.2706 10.9377V14.0627C19.2706 16.1408 16.3603 17.7084 12.4999 17.7084Z" fill="#C1C4D0"/>
</svg>
