<svg width="15" height="15" viewBox="0 0 15 15" fill="none" xmlns="http://www.w3.org/2000/svg">
<path d="M14.7497 13.5085L12.1559 11.0963C13.1995 9.8794 13.7714 8.34824 13.7714 6.75424C13.7714 3.03001 10.6824 0 6.88568 0C3.08897 0 0 3.03001 0 6.75424C0 10.4785 3.08897 13.5085 6.88568 13.5085C8.31101 13.5085 9.66929 13.0868 10.8306 12.2863L13.4552 14.7298C13.6261 14.904 13.856 15 14.1024 15C14.3356 15 14.5569 14.9128 14.7248 14.7542C15.0817 14.4174 15.093 13.8588 14.7497 13.5085ZM6.88568 1.76198C9.69204 1.76198 11.9751 4.00145 11.9751 6.75424C11.9751 9.50704 9.69204 11.7465 6.88568 11.7465C4.07931 11.7465 1.79626 9.50704 1.79626 6.75424C1.79626 4.00145 4.07931 1.76198 6.88568 1.76198Z" fill="#C1C4D0"/>
</svg>
