<svg width="21" height="21" viewBox="0 0 21 21" fill="none" xmlns="http://www.w3.org/2000/svg">
<path d="M5.42275 3.67658C4.95159 3.11333 4.03525 3.08856 3.46972 3.70997C2.0261 5.29732 -0.199589 8.57959 0.844771 12.9494C0.844771 12.9494 0.549634 13.0326 0.185654 13.1355C-0.178325 13.2379 0.00928272 13.8035 0.604963 14.3978L3.15481 16.9439C3.75049 17.5387 4.33501 17.3556 4.45989 16.5356L4.96852 13.2068C5.09347 12.3865 4.8041 11.8323 4.32178 11.9684L3.44838 12.2149C2.81594 9.30751 4.16091 7.03466 5.20648 5.77868C5.74299 5.13333 5.89383 4.23982 5.42275 3.67658Z" fill="#C1C4D0"/>
<path d="M8.33395 20.7501C9.00737 20.884 9.87002 20.9996 10.8413 20.9996C12.9158 20.9996 15.4865 20.4686 17.7741 18.4682C17.7741 18.4682 18.0662 18.7406 18.4255 19.0768C18.7856 19.4127 19.2679 19.0389 19.5023 18.2419L20.5081 14.829C20.7428 14.032 20.2884 13.6316 19.4931 13.9348L16.2636 15.1653C15.4682 15.4685 15.0459 15.9218 15.3201 16.1777L15.8168 16.6416C13.5609 18.5122 10.9294 18.508 9.3168 18.2588C8.47278 18.1282 7.59938 18.4465 7.33049 19.1234C7.06251 19.8 7.4969 20.5834 8.33395 20.7501Z" fill="#C1C4D0"/>
<path d="M20.9604 8.80541C20.4731 6.78617 19.0534 3.23222 14.9768 1.48653C14.9768 1.48653 15.1118 1.10942 15.2785 0.643733C15.4449 0.178455 14.8955 -0.0958541 14.0507 0.030952L10.436 0.574742C9.59124 0.701548 9.40712 1.26969 10.0237 1.84342L12.528 4.17257C13.1446 4.7463 13.7434 4.93617 13.8648 4.59659L14.0844 3.98153C16.7039 5.19847 17.7796 7.47733 18.2164 8.9821C18.4481 9.78026 19.1115 10.4167 19.858 10.3698C20.6038 10.3233 21.1554 9.61219 20.9604 8.80541Z" fill="#C1C4D0"/>
</svg>
